<?xml version="1.0" standalone="no"?>
<!DOCTYPE svg PUBLIC "-//W3C//DTD SVG 20010904//EN"
 "http://www.w3.org/TR/2001/REC-SVG-20010904/DTD/svg10.dtd">
<svg version="1.0" xmlns="http://www.w3.org/2000/svg"
 width="450.000000pt" height="450.000000pt" viewBox="0 0 450.000000 450.000000"
 preserveAspectRatio="xMidYMid meet">
<metadata>
Created by potrace 1.11, written by Peter Selinger 2001-2013
</metadata>
<g transform="translate(0.000000,450.000000) scale(0.100000,-0.100000)"
fill="#000000" stroke="none">
<path d="M4116 4173 c-1 -2 -30 -4 -63 -6 -34 -2 -69 -9 -79 -17 -11 -9 -15
-10 -10 -2 11 18 -15 15 -43 -5 -14 -9 -21 -11 -17 -5 12 20 -18 14 -42 -8
-25 -24 -33 -25 -26 -5 9 23 -11 18 -44 -10 -34 -29 -44 -31 -36 -10 10 25
-20 17 -53 -15 -30 -29 -47 -31 -36 -4 9 23 -14 16 -52 -17 -19 -17 -35 -38
-35 -48 -1 -14 -2 -14 -11 2 -6 10 -8 25 -5 33 3 8 -1 14 -11 14 -20 0 -83
-66 -83 -88 -1 -15 -3 -14 -15 2 -8 11 -13 28 -9 38 16 51 -64 -13 -91 -72
l-19 -41 -14 26 c-7 15 -11 33 -8 41 3 9 -1 14 -14 14 -27 0 -78 -67 -86 -114
l-6 -40 -24 27 c-13 16 -24 39 -24 52 0 19 -4 23 -17 18 -47 -16 -86 -80 -87
-143 -1 -44 -11 -42 -49 7 -17 23 -25 43 -21 55 6 21 1 22 -29 7 -49 -27 -76
-90 -73 -167 2 -34 0 -39 -14 -31 -49 29 -86 80 -76 105 4 11 0 15 -16 12 -29
-4 -77 -67 -84 -109 -3 -19 -7 -46 -9 -61 -3 -18 1 -31 13 -37 9 -6 12 -11 5
-11 -22 0 -14 -19 15 -34 l27 -14 -27 1 c-16 1 -28 5 -28 10 0 4 -5 7 -10 7
-12 0 -40 27 -83 79 -18 22 -26 40 -22 52 8 24 0 24 -41 -1 -41 -26 -64 -85
-61 -163 2 -45 7 -62 22 -74 18 -14 18 -15 2 -9 -33 11 -13 -18 29 -41 46 -27
42 -28 -17 -8 -34 12 -44 13 -51 3 -5 -9 -8 -6 -8 9 0 25 -16 39 -23 21 -4
-10 -6 -10 -6 0 -1 7 -21 32 -46 56 -30 30 -45 53 -45 70 0 20 -4 24 -17 19
-28 -10 -53 -35 -67 -67 -23 -52 -25 -63 -13 -76 9 -10 9 -11 0 -6 -17 9 -17
-6 0 -23 10 -11 10 -13 0 -7 -15 8 -18 -10 -3 -19 5 -3 7 -12 4 -19 -3 -8 5
-22 18 -31 l23 -17 -22 7 c-37 10 -27 -12 15 -35 32 -18 33 -20 10 -15 -46 9
-32 -14 25 -41 l52 -26 -45 7 c-25 3 -49 10 -54 16 -13 12 -29 12 -21 0 3 -5
1 -12 -5 -16 -5 -3 -10 3 -10 13 0 11 -7 25 -15 32 -12 10 -15 9 -16 -6 -1
-19 -1 -18 -15 26 -5 13 -6 13 -14 0 -8 -13 -10 -13 -10 1 0 9 -16 30 -36 45
-39 31 -64 71 -57 92 6 16 -2 15 -35 -2 -43 -22 -81 -112 -59 -136 9 -10 9
-11 0 -6 -20 11 -15 -12 5 -24 16 -11 16 -11 0 -6 -20 6 -25 -9 -7 -20 8 -4 7
-9 -2 -14 -9 -6 -2 -14 22 -30 l34 -21 -30 7 c-27 6 -29 5 -15 -9 8 -9 29 -23
45 -32 l30 -16 -32 6 c-52 10 -40 -13 20 -40 54 -25 54 -31 -1 -16 -19 6 -32
6 -32 1 0 -14 45 -41 103 -62 l52 -18 -45 6 c-25 4 -54 7 -65 8 -11 0 -26 7
-34 15 -13 11 -16 11 -22 -5 -7 -18 -7 -18 -14 1 -16 42 -28 48 -41 23 l-13
-23 -1 27 c0 31 -18 47 -31 27 -6 -10 -9 -8 -9 10 0 16 -4 21 -15 17 -8 -3
-15 -1 -15 5 0 5 -20 29 -45 53 -41 40 -50 55 -46 79 0 4 -7 7 -17 7 -49 0
-111 -129 -81 -167 10 -11 10 -14 1 -9 -15 9 -16 -6 0 -22 9 -9 9 -12 -1 -12
-18 0 5 -29 34 -41 16 -8 15 -8 -7 -4 -40 8 -34 -11 10 -35 32 -18 33 -20 10
-15 -47 9 -32 -14 25 -40 50 -23 45 -35 -7 -15 -16 6 -26 6 -26 0 0 -14 45
-41 103 -62 l52 -18 -49 6 c-27 3 -55 8 -62 11 -22 8 -16 -11 8 -26 13 -8 57
-27 98 -43 75 -28 72 -29 -35 -13 -35 6 -49 -8 -20 -19 15 -5 22 -46 8 -46 -5
1 -17 20 -28 43 -11 23 -28 44 -39 45 -11 3 -16 0 -12 -7 4 -6 2 -19 -3 -28
-9 -16 -10 -15 -11 8 0 14 -10 36 -22 49 l-22 24 -6 -25 c-6 -23 -6 -23 -18 9
-11 33 -27 42 -35 20 -3 -7 -10 1 -17 17 -11 29 -12 30 -27 10 -10 -13 -14
-14 -10 -4 3 9 1 22 -4 30 -8 12 -10 12 -19 -1 -8 -12 -10 -11 -10 8 0 12 -4
22 -8 22 -20 0 -82 72 -82 95 0 32 -18 32 -53 -1 -31 -29 -51 -70 -43 -91 3
-8 2 -12 -3 -8 -15 8 -7 -61 8 -79 12 -14 12 -16 -3 -10 -25 9 -10 -21 17 -35
22 -11 22 -11 -2 -5 -35 9 -22 -17 20 -39 31 -17 31 -18 7 -13 -55 12 -25 -26
39 -51 l38 -14 -45 6 c-45 6 -45 6 -25 -14 11 -11 43 -29 70 -41 49 -20 49
-20 12 -15 -21 4 -45 9 -53 12 -23 9 -16 -15 8 -29 13 -7 57 -25 98 -41 73
-27 74 -27 28 -22 -27 2 -59 7 -73 11 -35 9 -32 -12 5 -31 17 -9 70 -29 118
-46 l87 -30 -56 6 c-30 2 -71 7 -90 11 l-34 6 27 -25 c26 -25 30 -67 5 -67 -6
0 -8 3 -4 6 7 7 -18 60 -41 87 -22 25 -42 21 -42 -7 0 -31 -15 -42 -17 -13 -2
23 -33 69 -51 75 -7 2 -12 -6 -12 -17 0 -32 -15 -25 -29 14 -14 39 -41 47 -42
13 -1 -18 -3 -16 -10 9 -10 36 -28 51 -38 34 -5 -7 -12 -2 -20 16 -9 20 -15
24 -21 14 -6 -10 -9 -8 -15 8 -3 11 -11 21 -16 21 -12 0 -27 12 -75 60 -26 25
-34 41 -31 58 4 19 1 22 -17 16 -32 -9 -66 -47 -81 -89 -17 -52 -11 -136 11
-152 17 -12 17 -13 0 -13 -27 0 -8 -20 38 -41 43 -19 36 -26 -9 -9 -39 15 -28
-10 14 -32 46 -23 51 -31 14 -23 -51 10 -40 -10 20 -38 28 -13 59 -27 67 -30
10 -4 8 -6 -7 -6 -12 -1 -34 4 -49 9 -15 6 -29 8 -32 5 -13 -12 30 -38 109
-66 l84 -29 -57 5 c-31 3 -63 8 -72 11 -9 3 -16 2 -16 -4 0 -13 75 -49 164
-79 l71 -23 -65 6 c-36 3 -76 8 -90 11 -23 6 -24 5 -10 -12 18 -21 85 -51 132
-59 18 -3 60 -14 93 -25 l60 -20 -85 3 c-47 2 -93 7 -102 11 -28 12 -21 -14 7
-27 20 -9 25 -18 25 -47 l0 -36 -20 25 c-11 14 -20 30 -20 36 0 14 -63 74 -79
74 -7 0 -9 -5 -6 -10 8 -13 -4 -74 -13 -65 -3 3 -7 15 -9 27 -5 29 -51 88 -69
88 -8 0 -12 -5 -9 -10 3 -6 3 -20 -1 -32 -6 -20 -8 -19 -21 13 -15 36 -41 69
-55 69 -4 0 -8 -12 -9 -27 0 -26 -2 -24 -19 15 -11 23 -26 42 -35 42 -8 0 -14
-3 -14 -7 5 -30 -4 -32 -14 -4 -13 38 -36 53 -38 24 -1 -13 -3 -11 -8 7 -4 15
-14 24 -24 24 -9 -1 -19 6 -22 16 -5 15 -38 38 -41 28 -1 -2 -20 17 -43 42
-25 27 -39 52 -37 63 6 25 -28 22 -57 -5 -20 -20 -37 -50 -39 -68 0 -3 -4 -12
-9 -21 -5 -10 -3 -21 4 -29 9 -10 9 -11 0 -6 -18 10 -11 -43 7 -54 10 -7 11
-10 3 -10 -22 0 -14 -19 14 -35 l28 -15 -29 6 c-42 10 -25 -13 28 -37 43 -19
37 -26 -8 -9 -16 6 -26 6 -26 0 0 -14 43 -40 92 -56 l43 -14 -40 5 c-22 4 -48
8 -57 11 -10 3 -18 1 -18 -4 0 -9 25 -23 100 -56 27 -12 30 -16 13 -16 -12 0
-33 4 -47 10 -20 7 -26 6 -26 -4 0 -15 28 -30 120 -63 l65 -23 -50 5 c-27 2
-60 7 -72 11 -13 4 -23 2 -23 -4 0 -14 79 -51 169 -79 l76 -23 -63 5 c-34 2
-74 8 -87 11 -16 4 -25 2 -25 -5 0 -19 100 -59 195 -78 47 -10 85 -22 85 -27
0 -10 -153 -2 -184 10 -14 5 -17 3 -14 -7 5 -16 115 -64 168 -74 39 -7 65 -13
65 -15 0 -5 47 -13 82 -14 26 0 37 -4 30 -9 -7 -5 1 -7 20 -5 19 3 29 0 26 -5
-6 -10 -221 -3 -263 9 -25 7 -25 7 -6 -14 10 -12 27 -24 37 -27 15 -5 19 -16
19 -50 0 -47 -14 -70 -17 -28 0 14 -5 28 -10 32 -4 3 -21 23 -37 44 -15 21
-42 47 -60 58 -35 21 -56 25 -38 7 13 -13 17 -78 4 -78 -4 0 -13 12 -19 27
-21 46 -73 103 -95 103 -16 0 -18 -3 -10 -13 12 -14 5 -57 -8 -57 -4 0 -10 13
-13 28 -6 29 -49 82 -67 82 -5 0 -10 -11 -10 -25 0 -36 -14 -31 -29 10 -15 42
-51 67 -51 36 0 -11 -4 -23 -10 -26 -5 -3 -10 2 -10 12 0 22 -27 63 -41 63 -5
0 -9 -8 -9 -17 0 -12 -8 -6 -22 17 -12 20 -23 30 -25 23 -6 -18 -23 -16 -23 1
0 21 -21 31 -31 15 -6 -10 -9 -8 -9 10 0 16 -4 21 -15 17 -8 -3 -15 0 -15 7 0
7 -13 20 -28 31 -33 22 -75 83 -67 96 4 6 0 10 -8 10 -23 0 -63 -37 -81 -74
-19 -41 -22 -126 -3 -126 8 0 7 -3 -3 -10 -8 -5 -12 -11 -10 -13 3 -2 16 -12
30 -21 24 -17 24 -17 3 -11 -40 11 -25 -15 19 -35 45 -20 39 -28 -7 -10 -39
15 -28 -10 14 -32 44 -22 52 -32 18 -24 -28 7 -36 -5 -14 -21 6 -5 35 -18 62
-28 53 -20 39 -35 -15 -16 -23 8 -30 7 -30 -3 0 -14 68 -47 145 -71 l50 -15
-59 6 c-33 3 -65 8 -73 11 -7 3 -13 0 -13 -6 0 -22 200 -99 221 -85 4 2 11 -1
15 -7 5 -9 -11 -10 -62 -5 -38 4 -79 10 -91 13 -13 3 -23 1 -23 -5 0 -17 87
-52 198 -78 59 -14 109 -28 112 -31 6 -7 -177 5 -210 13 -24 7 -25 7 -7 -13
21 -24 73 -44 182 -69 44 -10 85 -21 90 -25 6 -5 25 -6 43 -3 26 4 31 2 26
-10 -5 -13 -22 -14 -102 -10 -53 3 -104 10 -114 15 -14 7 -18 6 -18 -6 0 -34
283 -118 388 -115 21 0 31 -3 27 -10 -4 -6 5 -11 22 -12 15 -1 -1 -4 -37 -7
-69 -6 -213 2 -242 14 -11 4 -18 3 -18 -5 0 -31 273 -118 334 -106 20 4 26 3
17 -3 -9 -6 12 -11 65 -16 43 -4 82 -12 85 -17 3 -5 32 -6 68 -2 52 6 61 9 56
24 -3 10 2 23 12 31 16 13 17 12 4 -4 -10 -13 -11 -20 -2 -31 10 -11 6 -16
-16 -25 -24 -9 -19 -10 32 -7 88 6 129 16 141 32 10 12 13 12 17 2 4 -10 8
-10 16 2 8 11 6 19 -10 33 -20 16 -20 17 -3 18 12 0 8 4 -10 9 -16 5 -34 6
-39 3 -6 -3 -7 -1 -3 5 4 7 0 12 -10 12 -10 0 -15 3 -11 6 3 3 22 1 42 -6 28
-9 39 -9 51 1 12 10 13 9 8 -4 -5 -13 5 -16 67 -16 66 0 87 -6 250 -72 l179
-71 2 -317 c1 -174 4 -278 5 -231 l4 86 147 59 c213 85 235 95 230 101 -3 2
-26 -5 -52 -16 -26 -11 -50 -20 -53 -20 -3 0 17 23 46 51 60 61 71 96 16 55
-19 -15 -35 -23 -34 -19 1 13 79 76 79 64 0 -14 49 -14 70 -1 12 8 12 10 1 10
-8 0 -11 3 -7 7 4 5 14 0 21 -10 22 -30 0 -81 -41 -96 -53 -19 -38 -41 28 -41
27 0 29 2 17 16 -7 9 3 5 23 -8 32 -21 34 -24 17 -32 -23 -11 -27 -51 -4 -42
8 3 15 1 15 -5 0 -6 4 -8 9 -4 5 3 12 1 16 -5 3 -5 17 -10 30 -10 13 0 27 -5
30 -10 3 -6 27 -10 53 -10 l47 1 -27 15 c-16 8 -28 16 -28 18 0 2 28 -3 61
-11 63 -14 116 -9 74 7 -11 4 9 6 45 3 49 -3 61 -2 50 6 -11 9 -3 10 33 5 26
-3 47 -2 47 3 0 5 33 14 73 21 118 20 303 90 285 108 -3 2 -29 -1 -59 -6 -64
-13 -231 -11 -274 3 -43 14 -55 29 -14 17 18 -6 49 -10 68 -10 32 0 33 1 16
13 -14 11 -15 16 -5 22 8 5 11 4 7 -2 -8 -13 15 -23 54 -23 20 0 28 4 23 12
-5 8 2 9 24 5 17 -4 34 -3 36 2 3 5 25 11 48 15 59 9 195 53 229 73 34 21 38
38 7 28 -13 -4 -75 -8 -138 -10 -63 -2 -103 -1 -87 2 16 2 25 9 21 15 -5 7 3
9 21 5 16 -2 36 -2 44 3 9 4 56 17 105 29 99 23 196 64 196 82 0 7 -7 8 -17 4
-10 -4 -67 -9 -128 -11 l-110 -4 76 15 c134 25 315 93 297 110 -2 3 -31 0 -64
-5 -163 -27 -128 0 57 44 32 8 99 47 99 57 0 7 -7 8 -17 4 -10 -4 -43 -9 -73
-11 l-55 -5 72 25 c81 28 129 51 139 67 4 8 -3 9 -25 5 -87 -17 -94 -16 -36 7
93 37 115 49 115 64 0 10 -5 11 -19 3 -11 -5 -30 -10 -43 -10 -16 1 -8 7 25
20 27 10 55 24 63 30 21 18 17 32 -5 20 -11 -5 -25 -10 -32 -10 -7 0 7 10 31
23 44 22 69 53 33 41 -10 -3 -3 4 16 16 24 15 31 24 22 29 -10 6 -9 9 2 14 21
8 40 90 34 144 -3 32 -12 53 -27 65 -27 22 -44 23 -37 4 4 -9 -14 -34 -44 -63
-77 -75 -95 -89 -107 -85 -5 1 -13 -7 -17 -19 -6 -16 -9 -18 -16 -8 -9 15 -10
14 -33 -26 -10 -16 -15 -22 -12 -12 10 32 -25 15 -46 -23 -13 -23 -18 -27 -15
-13 11 48 -32 21 -67 -42 l-17 -30 5 33 c3 17 2 32 -3 32 -9 0 -57 -53 -78
-86 -11 -18 -12 -18 -12 2 -1 11 4 25 11 32 9 9 9 12 -3 12 -19 0 -63 -42 -96
-92 -30 -45 -43 -36 -19 13 21 42 21 42 -12 25 -34 -18 -112 -100 -112 -119 0
-8 -6 -14 -14 -14 -10 0 -12 7 -5 30 4 16 13 35 20 43 40 48 -50 3 -101 -50
-76 -80 -91 -101 -86 -120 3 -12 1 -15 -5 -9 -15 15 5 91 32 119 27 29 11 32
-44 9 -23 -9 -68 -15 -121 -15 -74 0 -85 2 -79 16 4 10 13 14 29 10 12 -3 26
-1 30 5 3 6 14 9 24 6 21 -5 90 10 195 42 101 31 148 71 60 51 -52 -12 -148
-13 -141 -1 4 5 0 12 -6 15 -7 3 -1 3 13 0 38 -8 261 52 297 79 21 16 13 27
-14 17 -14 -6 -53 -10 -87 -9 l-62 1 55 12 c135 31 246 74 230 89 -3 3 -25 1
-50 -3 -25 -5 -58 -9 -75 -9 -30 1 -30 1 5 10 103 27 172 52 192 70 l23 19
-25 -4 c-90 -17 -102 -14 -35 8 79 26 115 43 115 55 0 4 -15 6 -32 4 -27 -3
-24 0 21 19 61 26 78 48 34 42 l-28 -4 26 9 c47 16 71 32 65 46 -3 8 3 17 15
20 11 4 18 12 16 19 -3 7 4 18 14 25 11 6 17 16 14 21 -3 6 -2 10 2 10 16 0
46 107 39 137 -14 51 -40 69 -51 33 -7 -23 -128 -111 -191 -140 -22 -11 -47
-26 -54 -35 -10 -12 -15 -13 -21 -4 -5 9 -17 2 -39 -22 -18 -19 -30 -26 -27
-16 4 9 3 17 -2 17 -11 0 -51 -38 -75 -70 -17 -24 -18 -19 -1 23 13 32 -15 18
-65 -33 -50 -49 -64 -54 -34 -12 37 54 -49 6 -107 -59 -18 -20 -29 -27 -29
-18 0 9 9 25 20 37 18 19 19 22 4 22 -35 0 -141 -88 -156 -130 -5 -12 -7 -12
-13 3 -5 11 2 29 21 54 l27 36 -24 -7 c-45 -15 -124 -21 -189 -16 l-65 5 55 9
c30 6 59 9 64 7 10 -2 82 12 151 31 52 13 115 39 115 47 0 3 -36 5 -81 3 -57
-3 -79 0 -74 7 3 6 10 9 15 6 11 -7 176 30 222 49 47 20 59 37 21 31 -66 -11
-104 -12 -109 -4 -3 5 6 9 21 9 49 0 205 50 205 65 0 3 -25 2 -55 -1 -70 -8
-71 1 -2 15 108 23 184 65 100 55 -31 -3 -27 0 21 15 33 11 66 27 75 36 15 15
14 16 -14 10 -21 -4 -17 0 15 13 25 11 46 27 48 35 2 9 12 19 23 22 11 4 18
13 15 20 -2 7 3 15 12 18 27 7 92 126 92 168 0 38 -29 77 -38 51 -6 -19 -42
-51 -77 -69 -16 -9 -32 -19 -35 -22 -3 -4 -20 -13 -37 -20 -18 -8 -33 -17 -33
-22 0 -5 -6 -6 -13 -3 -8 3 -20 -2 -27 -10 -7 -9 -17 -13 -22 -10 -5 3 -21 -5
-35 -17 -15 -13 -23 -18 -19 -11 13 23 -13 12 -51 -20 -21 -18 -32 -25 -24
-15 12 15 11 17 -3 17 -9 0 -34 -19 -56 -41 -40 -42 -49 -44 -30 -8 19 35 -15
22 -69 -27 -48 -43 -74 -47 -31 -4 19 19 19 20 1 20 -20 0 -102 -57 -133 -93
-12 -13 -18 -15 -18 -7 0 8 12 27 28 43 22 24 23 28 7 22 -33 -14 -189 -19
-181 -6 4 6 23 11 41 11 74 0 255 46 255 64 0 2 -26 2 -59 -1 -35 -3 -61 -1
-65 5 -3 5 4 10 17 10 40 -1 187 34 205 49 15 12 12 13 -30 11 -25 -2 -44 0
-41 5 2 4 14 7 27 7 36 0 146 37 146 49 0 4 -17 6 -37 4 -27 -2 -18 2 31 16
75 21 106 41 66 42 -17 0 -9 5 23 15 29 9 47 20 44 27 -2 7 9 18 25 24 16 7
27 17 23 23 -3 5 0 10 8 10 8 0 28 16 43 36 16 20 34 42 41 49 15 16 53 87 53
100 0 6 -6 20 -14 31 -14 18 -15 18 -36 -8 -21 -27 -186 -116 -204 -110 -5 2
-20 -7 -34 -20 -14 -13 -22 -17 -18 -10 12 21 -11 13 -46 -15 -18 -15 -27 -20
-19 -10 20 25 0 21 -45 -9 -21 -15 -32 -19 -25 -10 7 9 10 16 5 16 -12 0 -74
-38 -104 -64 l-25 -21 24 28 c14 15 19 27 12 27 -19 0 -84 -37 -113 -65 -16
-14 -28 -21 -28 -16 0 5 11 18 25 29 29 23 23 35 -12 21 -30 -11 -123 -12
-123 0 0 4 33 11 73 14 75 7 177 32 177 45 0 4 -28 6 -62 5 l-63 -2 77 13 c85
15 148 34 148 44 0 4 -24 6 -52 5 l-53 -2 50 8 c71 12 135 30 135 40 0 4 -15
6 -32 5 -18 -2 -6 4 27 12 60 15 93 33 65 35 -8 0 1 6 20 13 19 7 35 17 34 22
-1 5 11 14 25 20 58 25 161 147 161 191 0 30 -10 29 -65 -8 -25 -17 -71 -39
-103 -50 -31 -11 -66 -24 -77 -29 -30 -13 -69 -24 -78 -22 -4 1 -18 -3 -30
-10 -12 -7 -28 -11 -36 -9 -7 1 -34 -12 -60 -30 -31 -22 -40 -26 -27 -11 31
35 -3 28 -65 -14 -43 -29 -49 -32 -31 -12 l23 26 -68 -5 c-76 -6 -82 6 -7 13
125 12 210 43 127 45 -33 1 -31 3 17 10 69 10 121 29 100 37 -9 3 4 10 30 16
25 7 44 17 43 23 -1 6 13 14 32 17 19 4 35 11 35 17 0 5 11 14 25 19 14 5 25
14 25 20 0 5 6 10 13 10 7 0 24 11 39 25 15 14 30 25 34 25 12 0 74 75 80 97
9 32 -4 48 -24 30 -34 -30 -141 -73 -252 -102 -8 -3 -33 -9 -55 -15 -22 -6
-51 -13 -65 -14 -14 -1 -40 -11 -59 -20 -18 -10 -30 -13 -26 -7 4 8 -6 10 -34
5 -23 -4 -41 -3 -41 3 0 5 19 10 43 11 23 2 60 8 82 14 l40 12 -35 6 c-31 5
-28 6 28 13 73 8 95 17 67 27 -13 5 -3 9 33 14 28 4 52 11 52 16 0 5 10 12 22
16 12 3 28 13 36 20 7 8 20 14 28 14 8 0 14 5 14 10 0 6 7 10 15 10 8 0 15 5
15 10 0 6 5 10 11 10 22 0 109 93 109 117 0 27 -6 29 -26 9 -15 -16 -113 -55
-154 -62 -14 -3 -43 -10 -65 -16 -22 -6 -47 -12 -55 -13 -8 -1 -23 -6 -32 -10
-13 -5 -18 -3 -18 8 0 9 13 18 30 22 25 5 100 42 210 102 78 42 147 110 129
127 -3 3 -24 -4 -48 -16 -38 -18 -157 -53 -217 -62 -11 -1 -27 -6 -34 -11 -8
-5 -11 -3 -8 6 2 8 20 19 38 25 22 7 28 13 19 17 -8 3 3 6 24 6 20 1 37 6 37
11 0 6 6 10 13 10 42 0 207 108 207 135 0 18 0 18 -39 -1 -47 -24 -211 -55
-230 -44 -12 7 -6 9 22 10 20 0 37 5 37 10 0 6 9 10 20 10 49 0 238 109 225
129 -2 5 -28 0 -57 -10 -63 -20 -179 -39 -172 -27 3 4 15 8 27 8 12 0 34 6 49
14 14 8 42 19 62 26 100 33 178 103 84 75 -24 -6 -68 -15 -98 -18 l-55 -6 60
18 c108 32 199 80 183 96 -1 2 -28 -3 -58 -11 -53 -14 -105 -19 -70 -7 87 29
151 57 162 70 11 14 9 15 -20 9 -86 -17 -90 -14 -18 11 44 16 82 34 84 41 3 9
-4 11 -25 7 -19 -4 -15 0 12 10 49 19 66 35 39 36 -12 0 -6 5 16 13 19 7 33
16 30 21 -3 4 5 12 18 16 13 5 20 13 17 19 -3 5 1 10 10 10 10 0 34 13 54 28
46 36 152 83 202 89 22 3 39 9 39 13 0 15 -180 26 -194 13z m-394 -185 c-7 -7
-12 -8 -12 -2 0 6 3 14 7 17 3 4 9 5 12 2 2 -3 -1 -11 -7 -17z m-72 -32 c0 -3
-4 -8 -10 -11 -5 -3 -10 -1 -10 4 0 6 5 11 10 11 6 0 10 -2 10 -4z m47 -12
c-3 -3 -12 -4 -19 -1 -8 3 -5 6 6 6 11 1 17 -2 13 -5z m190 0 c-3 -3 -12 -4
-19 -1 -8 3 -5 6 6 6 11 1 17 -2 13 -5z m-335 -56 c-15 -15 -26 -4 -18 18 5
13 9 15 18 6 9 -9 9 -15 0 -24z m86 5 c-10 -2 -26 -2 -35 0 -10 3 -2 5 17 5
19 0 27 -2 18 -5z m189 1 c-3 -3 -12 -4 -19 -1 -8 3 -5 6 6 6 11 1 17 -2 13
-5z m-372 -59 c0 -26 -21 -30 -28 -6 -2 11 -2 22 1 26 11 10 27 -2 27 -20z
m85 -5 c-14 -4 -34 -8 -45 -9 -16 -1 -17 1 -5 9 8 5 29 9 45 9 29 -1 29 -1 5
-9z m-191 -63 c8 -11 7 -18 -7 -31 -18 -15 -19 -15 -30 9 -7 15 -17 23 -22 20
-6 -3 -10 -1 -10 4 0 16 56 13 69 -2z m121 -6 c0 -4 -17 -11 -37 -14 -21 -3
-47 -8 -58 -13 -16 -6 -15 -3 5 14 25 21 90 31 90 13z m-234 -92 c22 -21 25
-21 42 -6 23 21 85 22 101 3 10 -12 8 -13 -8 -9 -11 3 -41 -2 -67 -11 -55 -19
-68 -20 -59 -6 10 16 -11 12 -25 -5 -17 -20 -30 -19 -30 4 0 10 -7 24 -15 31
-10 9 -15 9 -15 1 0 -6 -4 -11 -10 -11 -5 0 -10 6 -10 13 0 23 70 20 96 -4z
m-136 -69 c0 -5 -5 -10 -11 -10 -5 0 -7 5 -4 10 3 6 8 10 11 10 2 0 4 -4 4
-10z m-143 -32 c-3 -8 -6 -5 -6 6 -1 11 2 17 5 13 3 -3 4 -12 1 -19z m149 -9
c16 -18 16 -20 -6 -44 -30 -32 -34 -32 -45 7 -6 20 -18 34 -29 36 -10 2 -16 0
-13 -5 3 -5 2 -15 -2 -22 -6 -9 -10 -4 -13 16 -3 26 -1 29 18 25 12 -2 24 1
28 6 8 14 41 4 62 -19z m164 8 c0 -8 -24 -20 -57 -30 -32 -9 -67 -19 -78 -23
-16 -6 -14 -1 9 24 19 21 41 32 65 35 20 2 42 4 49 5 6 1 12 -4 12 -11z m-360
-57 c0 -5 -2 -10 -4 -10 -3 0 -8 5 -11 10 -3 6 -1 10 4 10 6 0 11 -4 11 -10z
m50 -46 c0 -8 -4 -12 -10 -9 -5 3 -10 10 -10 16 0 5 5 9 10 9 6 0 10 -7 10
-16z m-160 -25 c0 -6 -4 -7 -10 -4 -5 3 -10 11 -10 16 0 6 5 7 10 4 6 -3 10
-11 10 -16z m163 -13 l28 -23 -26 -31 c-29 -35 -45 -41 -45 -17 0 23 -30 65
-47 65 -8 0 -12 -4 -9 -8 2 -4 1 -14 -3 -21 -6 -9 -12 -4 -19 18 -11 30 -10
31 18 31 16 0 31 4 34 9 8 13 36 3 69 -23z m203 7 c20 -26 18 -28 -34 -29 -26
0 -69 -11 -96 -23 -27 -11 -51 -19 -53 -17 -2 2 10 20 27 39 30 35 38 38 124
45 10 1 25 -6 32 -15z m-426 -69 c0 -8 -5 -12 -10 -9 -6 4 -8 11 -5 16 9 14
15 11 15 -7z m-243 -36 c-3 -8 -6 -5 -6 6 -1 11 2 17 5 13 3 -3 4 -12 1 -19z
m305 -13 c0 -5 -5 -11 -11 -13 -6 -2 -11 4 -11 13 0 9 5 15 11 13 6 -2 11 -8
11 -13z m263 5 c-3 -5 -11 -10 -16 -10 -6 0 -7 5 -4 10 3 6 11 10 16 10 6 0 7
-4 4 -10z m-512 -25 c-7 -21 -13 -19 -13 6 0 11 4 18 10 14 5 -3 7 -12 3 -20z
m63 -10 c11 -27 -2 -37 -14 -11 -7 16 -8 26 -1 26 5 0 12 -7 15 -15z m193 -15
c44 -32 44 -33 3 -88 l-25 -33 -14 33 c-22 52 -77 102 -72 66 1 -7 1 -22 0
-33 -2 -16 -6 -13 -21 15 -26 47 -25 50 15 50 19 0 35 5 35 10 0 19 37 10 79
-20z m231 16 c0 -8 9 -18 20 -21 32 -10 23 -24 -12 -19 -31 5 -91 -12 -182
-51 l-38 -16 21 28 c11 15 27 37 36 47 9 12 39 25 72 32 77 16 83 16 83 0z
m-600 -16 c-24 -15 -36 -11 -14 4 10 8 21 12 24 10 2 -3 -2 -9 -10 -14z m887
14 c-3 -3 -12 -4 -19 -1 -8 3 -5 6 6 6 11 1 17 -2 13 -5z m-456 -27 c-13 -13
-26 -3 -16 12 3 6 11 8 17 5 6 -4 6 -10 -1 -17z m-371 -23 c0 -8 -4 -12 -10
-9 -5 3 -10 10 -10 16 0 5 5 9 10 9 6 0 10 -7 10 -16z m67 -49 c0 -10 -6 -14
-14 -10 -8 3 -17 5 -19 5 -3 0 -2 5 1 10 10 16 32 12 32 -5z m-285 -47 c-9 -9
-12 -7 -12 12 0 19 3 21 12 12 9 -9 9 -15 0 -24z m251 25 c-7 -2 -21 -2 -30 0
-10 3 -4 5 12 5 17 0 24 -2 18 -5z m107 -39 c0 -16 -16 -19 -25 -4 -8 13 4 32
16 25 5 -4 9 -13 9 -21z m305 16 c-3 -5 -11 -10 -16 -10 -6 0 -7 5 -4 10 3 6
11 10 16 10 6 0 7 -4 4 -10z m342 -6 c-3 -3 -12 -4 -19 -1 -8 3 -5 6 6 6 11 1
17 -2 13 -5z m-1107 -14 c0 -5 -2 -10 -4 -10 -3 0 -8 5 -11 10 -3 6 -1 10 4
10 6 0 11 -4 11 -10z m170 -12 c0 -19 -2 -20 -10 -8 -13 19 -13 30 0 30 6 0
10 -10 10 -22z m574 6 c8 -3 12 -12 9 -19 -3 -9 5 -16 24 -20 15 -4 31 -7 35
-8 4 -1 -17 -12 -47 -24 -59 -23 -77 -21 -22 2 l32 14 -28 1 c-27 0 -140 -41
-202 -74 -16 -8 -31 -13 -34 -11 -2 3 12 29 32 59 33 50 40 55 89 65 61 12 92
18 95 20 1 0 8 -2 17 -5z m-265 -39 l50 -36 -32 -54 c-18 -30 -36 -55 -41 -55
-5 0 -6 3 -3 7 15 14 -70 123 -96 123 -5 0 -6 -9 -2 -20 3 -11 2 -27 -3 -36
-7 -13 -13 -8 -29 28 l-21 43 39 9 c21 5 39 13 39 17 0 21 54 6 99 -26z m597
28 c-7 -7 -87 -5 -95 3 -2 2 20 4 49 4 29 0 50 -3 46 -7z m-823 -15 c2 -7 1
-22 -3 -32 -6 -17 -8 -16 -18 12 -9 26 -8 32 2 32 8 0 16 -6 19 -12z m-203
-14 c0 -8 -4 -12 -10 -9 -5 3 -10 10 -10 16 0 5 5 9 10 9 6 0 10 -7 10 -16z
m495 -13 c-9 -16 -25 -3 -18 15 4 10 9 12 15 6 6 -6 7 -15 3 -21z m-538 3 c-3
-3 -12 -4 -19 -1 -8 3 -5 6 6 6 11 1 17 -2 13 -5z m106 -35 c-4 -15 -9 -17
-17 -9 -8 8 -7 13 4 20 8 5 16 10 17 10 0 0 -1 -9 -4 -21z m-26 -25 c-3 -3
-12 -4 -19 -1 -8 3 -5 6 6 6 11 1 17 -2 13 -5z m1110 0 c-3 -3 -12 -4 -19 -1
-8 3 -5 6 6 6 11 1 17 -2 13 -5z m-999 -33 c1 -16 -3 -33 -9 -37 -7 -4 -9 -3
-6 3 4 6 0 17 -9 24 -14 12 -14 14 2 26 10 7 18 13 19 13 0 0 2 -13 3 -29z
m707 19 c-3 -5 -11 -10 -16 -10 -6 0 -7 5 -4 10 3 6 11 10 16 10 6 0 7 -4 4
-10z m-120 -30 c-3 -5 -11 -10 -16 -10 -6 0 -7 5 -4 10 3 6 11 10 16 10 6 0 7
-4 4 -10z m115 0 c0 -5 -7 -7 -15 -4 -8 4 -15 8 -15 10 0 2 7 4 15 4 8 0 15
-4 15 -10z m-730 -16 c0 -2 -13 -4 -30 -4 -16 0 -30 4 -30 8 0 5 14 7 30 4 17
-2 30 -6 30 -8z m490 -8 c-14 -13 -71 -35 -60 -23 7 7 63 37 70 37 2 0 -2 -6
-10 -14z m-787 -3 c3 -5 1 -17 -3 -28 -6 -17 -7 -16 -12 8 -5 25 5 37 15 20z
m907 -3 c13 -8 13 -10 -2 -10 -9 0 -20 5 -23 10 -8 13 5 13 25 0z m-496 -6
c16 -6 23 -44 9 -44 -17 1 -45 29 -38 39 7 13 8 13 29 5z m216 -18 c0 -2 -7
-9 -15 -16 -12 -10 -15 -10 -15 4 0 9 7 16 15 16 8 0 15 -2 15 -4z m-750 -22
c0 -8 -4 -12 -10 -9 -5 3 -10 10 -10 16 0 5 5 9 10 9 6 0 10 -7 10 -16z m207
0 c3 -8 1 -20 -6 -27 -8 -8 -11 -8 -11 0 0 6 -3 18 -6 27 -3 9 -1 16 5 16 7 0
14 -7 18 -16z m679 1 c-7 -20 43 -46 75 -39 13 3 4 -5 -21 -17 -25 -11 -61
-31 -80 -42 -29 -18 -33 -18 -21 -3 8 9 28 24 45 33 39 20 18 29 -31 12 -64
-20 -193 -82 -193 -91 0 -5 -4 -7 -9 -3 -5 3 -12 1 -16 -5 -3 -5 -11 -10 -16
-10 -6 0 6 31 27 70 39 74 40 75 149 99 66 15 98 13 91 -4z m-585 -31 c6 -8 8
-26 4 -43 -9 -43 -20 -45 -21 -5 0 18 -8 42 -18 53 -17 19 -17 19 3 14 11 -3
25 -11 32 -19z m273 -12 l64 -38 -35 -67 c-20 -37 -40 -67 -45 -67 -5 0 -6 5
-2 11 3 6 2 14 -3 18 -5 3 -19 23 -32 43 -22 37 -69 78 -89 78 -5 0 -7 -19 -4
-46 6 -54 -4 -53 -33 3 -10 21 -25 45 -33 54 -12 15 -8 18 37 24 28 4 51 11
51 16 0 22 65 6 124 -29z m86 11 c0 -5 -5 -15 -10 -23 -7 -11 -12 -12 -21 -3
-6 6 -8 16 -5 22 8 12 36 15 36 4z m-590 -19 c0 -9 -5 -14 -12 -12 -18 6 -21
28 -4 28 9 0 16 -7 16 -16z m980 11 c0 -2 -15 -12 -32 -20 l-33 -16 24 21 c22
19 41 26 41 15z m240 -19 c0 -3 -4 -8 -10 -11 -5 -3 -10 -1 -10 4 0 6 5 11 10
11 6 0 10 -2 10 -4z m-1257 -13 c-7 -2 -21 -2 -30 0 -10 3 -4 5 12 5 17 0 24
-2 18 -5z m117 -33 c0 -11 -4 -20 -9 -20 -13 0 -32 26 -24 33 13 14 33 6 33
-13z m1045 10 c-3 -5 -11 -10 -16 -10 -6 0 -7 5 -4 10 3 6 11 10 16 10 6 0 7
-4 4 -10z m-119 -35 c-11 -8 -25 -15 -30 -15 -6 1 0 7 14 15 32 19 40 18 16 0z
m119 5 c3 -6 -1 -7 -9 -4 -18 7 -21 14 -7 14 6 0 13 -4 16 -10z m-1068 -8 c7
-5 -4 -8 -27 -7 -22 0 -40 3 -40 8 0 9 52 9 67 -1z m1213 -12 c0 -5 -5 -10
-11 -10 -5 0 -7 5 -4 10 3 6 8 10 11 10 2 0 4 -4 4 -10z m-1104 -8 c6 -4 13
-17 16 -30 6 -22 6 -22 -22 -5 -16 9 -26 22 -23 30 6 15 13 16 29 5z m714 -12
c0 -5 -4 -10 -9 -10 -5 0 -18 -3 -28 -6 -16 -6 -16 -5 2 9 23 19 35 21 35 7z
m136 1 c-3 -5 -15 -7 -26 -4 -28 7 -25 13 6 13 14 0 23 -4 20 -9z m-851 -43
c3 -2 -17 -4 -44 -4 -33 0 -47 4 -44 11 4 11 76 5 88 -7z m550 -5 c-29 -20
-48 -17 -34 6 8 12 19 16 32 13 19 -5 19 -6 2 -19z m160 7 c7 -12 -12 -12 -40
0 -18 8 -17 9 7 9 15 1 30 -3 33 -9z m-1275 -26 c0 -8 -5 -12 -10 -9 -6 4 -8
11 -5 16 9 14 15 11 15 -7z m700 6 c4 0 10 -13 12 -29 4 -27 3 -29 -16 -19
-36 18 -45 29 -39 44 3 8 12 13 20 10 8 -3 18 -6 23 -6z m235 -29 c-14 -14
-17 -14 -25 -1 -15 23 -12 28 16 22 24 -4 24 -6 9 -21z m176 -5 c-10 -12 -7
-18 19 -31 18 -9 41 -15 51 -12 41 11 25 -11 -29 -39 -31 -16 -58 -32 -60 -36
-2 -5 -10 -8 -18 -8 -8 0 -14 -7 -14 -16 0 -8 -5 -12 -10 -9 -14 9 3 30 54 67
23 16 32 28 23 28 -30 0 -152 -49 -164 -67 -7 -9 -13 -13 -13 -9 0 5 -6 3 -13
-3 -8 -6 -16 -8 -19 -6 -3 3 -19 -8 -37 -24 -17 -16 -31 -24 -31 -19 0 17 -30
-13 -30 -31 -1 -14 -2 -14 -11 1 -7 13 -2 36 21 92 17 41 37 79 43 85 19 15
157 49 206 50 37 1 42 -1 32 -13z m-801 -33 c0 -15 -5 -23 -12 -20 -7 2 -13 9
-13 15 0 5 -3 14 -7 18 -14 14 -8 22 12 17 13 -4 20 -14 20 -30z m-240 8 c0
-27 -10 -31 -50 -20 l-35 9 39 -5 c30 -3 36 -1 28 7 -16 16 -15 28 3 28 8 0
15 -9 15 -19z m677 -34 c71 -43 77 -44 63 -17 -5 11 -15 29 -20 40 -9 18 -8
19 7 11 10 -5 25 -12 35 -15 14 -4 11 -17 -24 -103 -43 -107 -68 -144 -68
-105 0 13 -4 20 -10 17 -5 -3 -10 0 -10 8 0 8 -9 25 -21 38 -11 13 -24 29 -27
35 -10 17 -83 64 -99 64 -11 0 -10 -5 3 -25 12 -18 14 -35 9 -62 -4 -21 -10
-32 -12 -25 -3 6 -8 10 -13 7 -4 -3 -6 3 -3 13 5 20 -49 100 -75 110 -11 4 4
10 43 17 43 7 60 15 59 26 -2 27 93 7 163 -34z m-322 10 c10 -16 13 -34 9 -56
l-7 -32 -28 52 c-16 29 -29 54 -29 56 0 1 9 3 20 3 11 0 26 -11 35 -23z m975
6 c-14 -9 -28 -22 -32 -27 -4 -6 -8 -7 -8 -2 0 16 32 46 49 46 10 0 8 -5 -9
-17z m-115 -18 c-22 -13 -44 -28 -50 -32 -26 -23 -38 -24 -20 -3 25 28 75 60
95 60 8 -1 -3 -11 -25 -25z m-1135 -22 c0 -20 -24 -11 -28 10 -2 12 1 15 12
11 9 -3 16 -13 16 -21z m1435 17 c-3 -5 -11 -10 -16 -10 -6 0 -7 5 -4 10 3 6
11 10 16 10 6 0 7 -4 4 -10z m5 -30 c0 -5 -7 -7 -15 -4 -8 4 -15 8 -15 10 0 2
7 4 15 4 8 0 15 -4 15 -10z m-1461 -9 c8 -5 -2 -8 -28 -7 -23 0 -41 4 -41 8 0
11 52 10 69 -1z m1351 4 c0 -2 -10 -10 -22 -16 -21 -11 -22 -11 -9 4 13 16 31
23 31 12z m-1228 -50 c4 -21 2 -23 -13 -15 -23 13 -32 27 -24 40 10 15 33 0
37 -25z m1094 0 c-26 -19 -42 -19 -26 0 7 8 20 15 29 15 13 -1 13 -3 -3 -15z
m141 9 c-3 -3 -12 -4 -19 -1 -8 3 -5 6 6 6 11 1 17 -2 13 -5z m-1247 -39 l25
-15 -25 5 c-14 3 -37 7 -53 9 -41 4 -46 16 -6 16 19 -1 45 -7 59 -15z m960
-16 c0 -5 -1 -9 -3 -9 -1 0 -17 -4 -36 -10 l-33 -9 23 22 c23 22 49 25 49 6z
m155 11 c8 -13 -15 -13 -35 0 -12 8 -11 10 7 10 12 0 25 -4 28 -10z m-975 -25
c0 -8 3 -21 6 -30 6 -16 5 -16 -25 -1 -29 15 -39 35 -25 48 9 10 44 -4 44 -17z
m-790 5 c0 -5 -5 -10 -11 -10 -5 0 -7 5 -4 10 3 6 8 10 11 10 2 0 4 -4 4 -10z
m720 -40 c19 -1 45 -6 57 -13 19 -10 14 -12 -37 -12 -53 0 -60 2 -70 25 -9 20
-9 23 1 13 7 -7 29 -13 49 -13z m720 11 c0 -13 -22 -27 -52 -35 -14 -3 -34 -9
-45 -12 -10 -4 0 7 22 24 39 30 75 41 75 23z m173 -1 c17 -1 19 -2 7 -9 -8 -5
-33 -6 -55 -3 -32 4 -36 6 -20 13 11 4 26 6 33 3 8 -2 23 -4 35 -4z m-1563
-20 c0 -5 -2 -10 -4 -10 -3 0 -8 5 -11 10 -3 6 -1 10 4 10 6 0 11 -4 11 -10z
m827 -12 c-3 -8 -6 -5 -6 6 -1 11 2 17 5 13 3 -3 4 -12 1 -19z m-854 -5 c-7
-2 -19 -2 -25 0 -7 3 -2 5 12 5 14 0 19 -2 13 -5z m923 -7 c1 -1 4 -16 7 -34
l7 -32 -40 20 c-43 22 -43 21 -34 44 4 11 14 14 33 10 14 -4 26 -7 27 -8z
m273 -22 c-25 -27 -41 -31 -33 -9 4 9 0 15 -7 15 -25 0 7 15 36 16 l27 2 -23
-24z m-1102 -18 c-4 -9 -12 -16 -19 -16 -10 0 -10 2 1 9 9 6 10 11 2 15 -6 4
-8 12 -5 18 10 15 28 -8 21 -26z m1301 27 c18 -4 20 -8 10 -14 -23 -14 17 -42
64 -45 73 -5 74 -5 48 -17 -42 -20 -160 -98 -160 -106 0 -4 -7 -8 -14 -8 -23
0 17 51 62 79 26 16 32 24 21 26 -21 4 -155 -48 -177 -69 -17 -15 -24 -19 -53
-26 -9 -3 -21 -14 -27 -26 -6 -12 -11 -16 -11 -8 -1 20 -31 -6 -31 -28 0 -11
-3 -12 -8 -4 -9 15 -26 5 -36 -22 -7 -19 -8 -19 -17 -2 -8 13 -4 39 16 100 14
45 32 90 40 100 8 11 54 30 112 47 106 30 126 33 161 23z m-1341 -29 c-3 -3
-12 -4 -19 -1 -8 3 -5 6 6 6 11 1 17 -2 13 -5z m2240 0 c-3 -3 -12 -4 -19 -1
-8 3 -5 6 6 6 11 1 17 -2 13 -5z m-1849 -10 c16 -5 22 -14 22 -35 0 -38 -10
-36 -37 6 -23 37 -22 39 15 29z m532 -52 c41 -23 82 -41 90 -41 9 0 6 5 -7 11
-13 6 -23 16 -23 23 0 16 29 53 30 38 0 -7 3 -12 8 -12 28 5 31 -3 13 -43 -10
-24 -28 -79 -41 -124 -14 -50 -30 -85 -42 -93 -17 -10 -18 -9 -12 15 6 23 4
26 -9 21 -9 -3 -16 -3 -16 1 3 20 -2 33 -11 27 -5 -3 -10 1 -10 10 0 10 -5 13
-12 9 -6 -4 -8 -3 -5 3 12 19 -109 113 -146 113 -19 0 -19 -1 -3 -19 10 -11
20 -38 23 -60 5 -35 3 -40 -15 -38 -11 0 -18 6 -15 14 6 14 -21 45 -31 36 -3
-4 -6 1 -6 11 0 9 -19 35 -42 56 l-43 40 30 1 c17 0 37 2 45 4 8 2 26 5 39 8
25 4 43 27 22 27 -6 0 -11 3 -11 8 0 4 28 5 63 2 47 -5 80 -16 137 -48z m760
29 c-19 -16 -37 -27 -40 -24 -7 7 48 53 63 53 7 0 -4 -14 -23 -29z m330 25 c0
-2 -7 -7 -16 -10 -8 -3 -12 -2 -9 4 6 10 25 14 25 6z m-1890 -32 c0 -16 -16
-19 -25 -4 -8 13 4 32 16 25 5 -4 9 -13 9 -21z m860 16 c0 -5 -7 -7 -15 -4 -8
4 -15 8 -15 10 0 2 7 4 15 4 8 0 15 -4 15 -10z m-470 -15 c0 3 11 -5 25 -17
31 -27 36 -97 8 -119 -17 -13 -17 -13 -3 5 12 15 12 20 2 23 -6 3 -10 8 -8 12
3 4 -13 30 -34 59 -36 47 -37 50 -15 42 14 -5 25 -7 25 -5z m427 9 c-3 -3 -12
-4 -19 -1 -8 3 -5 6 6 6 11 1 17 -2 13 -5z m639 -7 c-11 -7 -30 -22 -43 -34
-13 -12 -23 -19 -23 -16 0 4 -5 2 -12 -5 -7 -7 -16 -12 -22 -12 -14 0 45 60
69 70 32 14 54 11 31 -3z m334 -7 c0 -5 -9 -14 -20 -20 -24 -13 -26 -7 -4 14
18 18 24 20 24 6z m243 -7 c-7 -2 -19 -2 -25 0 -7 3 -2 5 12 5 14 0 19 -2 13
-5z m-2058 -13 c15 -6 11 -8 -17 -7 -21 1 -38 5 -38 10 0 9 29 8 55 -3z m1679
-47 c-26 -19 -36 -16 -22 6 7 11 16 17 20 15 4 -3 8 1 9 8 0 10 2 9 6 -1 3 -8
-2 -20 -13 -28z m141 27 c3 -6 -1 -7 -9 -4 -18 7 -21 14 -7 14 6 0 13 -4 16
-10z m-1687 -26 c2 -25 -4 -25 -35 -1 -16 12 -7 27 15 27 12 0 18 -9 20 -26z
m-28 -24 c11 -7 2 -10 -32 -10 -27 0 -48 5 -48 10 0 13 60 13 80 0z m1450 -9
c0 -12 -21 -27 -49 -36 -23 -7 -23 -7 -5 17 17 23 54 36 54 19z m156 1 c-5 -8
-66 -4 -66 4 0 2 16 4 36 4 19 0 33 -4 30 -8z m-1456 -19 c0 -5 3 -19 7 -32
l6 -24 -31 19 c-18 10 -32 24 -32 31 0 13 50 19 50 6z m1130 -43 c0 -12 -41
-36 -75 -44 l-30 -8 28 22 c15 12 27 27 27 34 0 9 9 12 25 8 14 -2 25 -8 25
-12z m168 10 c10 0 12 -3 7 -9 -6 -5 -25 -7 -44 -4 -23 4 -29 8 -20 14 8 5 20
7 27 4 8 -3 21 -5 30 -5z m-1291 -34 c1 -1 -27 -1 -62 -1 -44 0 -61 3 -58 12
7 18 65 20 93 4 14 -8 26 -15 27 -15z m133 -4 c6 2 18 -14 26 -34 15 -43 14
-44 -27 -23 -16 9 -34 13 -39 10 -5 -3 -5 8 1 27 5 18 9 35 9 38 0 3 4 -1 9
-8 4 -7 14 -12 21 -10z m44 -8 c3 -8 2 -12 -4 -9 -6 3 -10 10 -10 16 0 14 7
11 14 -7z m210 -9 c-4 -8 -10 -15 -15 -15 -4 0 -6 7 -3 15 4 8 10 15 15 15 4
0 6 -7 3 -15z m534 -15 c-3 -17 -56 -45 -103 -55 l-30 -7 34 22 c18 11 35 29
38 38 5 22 65 24 61 2z m206 -4 c-3 -8 -14 -16 -25 -19 -10 -3 -17 -1 -13 4 3
5 -14 9 -38 10 -57 1 -22 17 39 18 32 1 41 -2 37 -13z m80 -2 c3 -8 2 -12 -4
-9 -6 3 -10 10 -10 16 0 14 7 11 14 -7z m-1974 -9 c0 -9 -6 -12 -15 -9 -8 4
-12 10 -9 15 8 14 24 10 24 -6z m2620 11 c0 -3 -4 -8 -10 -11 -5 -3 -10 -1
-10 4 0 6 5 11 10 11 6 0 10 -2 10 -4z m-2663 -22 c-3 -3 -12 -4 -19 -1 -8 3
-5 6 6 6 11 1 17 -2 13 -5z m958 -22 c17 -11 11 -12 -39 -7 -35 4 -56 3 -52
-3 3 -5 -5 -7 -18 -5 -16 3 -22 10 -19 22 4 14 13 16 56 11 29 -3 61 -11 72
-18z m1872 22 c-3 -3 -12 -4 -19 -1 -8 3 -5 6 6 6 11 1 17 -2 13 -5z m-2727
-36 c0 -17 -23 -3 -26 16 -2 14 0 15 12 5 8 -6 14 -16 14 -21z m970 17 c0 -8
-2 -15 -4 -15 -2 0 -6 7 -10 15 -3 8 -1 15 4 15 6 0 10 -7 10 -15z m391 -15
c29 0 29 0 13 -25 -20 -31 -30 -32 -37 -4 -3 12 -10 18 -15 15 -6 -4 -8 3 -4
16 3 12 7 17 10 10 2 -6 17 -12 33 -12z m1124 10 c-3 -5 -11 -10 -16 -10 -6 0
-7 5 -4 10 3 6 11 10 16 10 6 0 7 -4 4 -10z m-1440 -14 c0 0 8 -18 18 -39 9
-21 17 -40 17 -43 0 -2 -22 7 -50 21 -40 20 -50 30 -50 51 0 24 2 25 33 19 17
-4 32 -8 32 -9z m35 -6 c6 -11 8 -20 6 -20 -3 0 -10 9 -16 20 -6 11 -8 20 -6
20 3 0 10 -9 16 -20z m555 -11 c7 -7 5 -9 -4 -7 -7 2 -15 -2 -18 -8 -6 -17 72
-47 105 -41 16 3 39 3 51 0 19 -5 17 -7 -17 -24 -21 -11 -48 -28 -59 -39 -12
-10 -23 -16 -27 -13 -3 3 -8 -2 -12 -11 -3 -9 -10 -13 -16 -10 -5 3 -12 -3
-15 -14 -3 -12 -11 -18 -18 -16 -7 3 -16 -4 -20 -15 -3 -12 -10 -19 -15 -16
-5 3 -14 -4 -20 -16 -7 -11 -14 -18 -17 -16 -9 9 55 93 99 132 43 37 43 38 13
31 -45 -10 -195 -85 -201 -101 -3 -8 -12 -11 -20 -8 -8 3 -14 0 -14 -6 0 -6
-7 -11 -15 -11 -9 0 -20 -11 -25 -25 -5 -14 -12 -25 -15 -25 -4 0 -3 5 1 11 4
7 1 10 -7 7 -8 -3 -19 -15 -25 -27 -8 -16 -13 -19 -17 -9 -8 18 -37 -18 -37
-46 -1 -19 -1 -20 -11 -3 -6 9 -14 15 -19 12 -16 -10 38 216 59 242 23 31 232
94 286 87 22 -3 45 -10 50 -15z m-1685 7 c0 -3 -4 -8 -10 -11 -5 -3 -10 -1
-10 4 0 6 5 11 10 11 6 0 10 -2 10 -4z m1774 -4 c3 -5 -1 -9 -9 -9 -8 0 -12 4
-9 9 3 4 7 8 9 8 2 0 6 -4 9 -8z m779 1 c-7 -2 -19 -2 -25 0 -7 3 -2 5 12 5
14 0 19 -2 13 -5z m-103 -13 c0 -5 -9 -14 -20 -20 -24 -13 -26 -7 -4 14 18 18
24 20 24 6z m-1219 -23 c-10 -9 -11 -8 -5 6 3 10 9 15 12 12 3 -3 0 -11 -7
-18z m-1095 -6 c0 -16 -4 -17 -18 -10 -10 5 -18 14 -18 19 0 6 8 10 18 10 11
0 18 -7 18 -19z m1935 -10 c-17 -16 -31 -33 -31 -38 0 -5 -6 -10 -14 -10 -13
0 -13 4 0 28 15 29 39 48 63 49 7 0 -1 -13 -18 -29z m-1224 13 c-3 -3 -12 -4
-19 -1 -8 3 -5 6 6 6 11 1 17 -2 13 -5z m1628 -14 c-3 -5 -14 -6 -26 -3 -15 4
-17 8 -8 13 15 10 41 1 34 -10z m-1470 -2 c49 3 66 -2 175 -54 66 -31 120 -62
120 -68 -1 -23 -48 -230 -49 -216 -1 11 -4 11 -13 2 -19 -19 -25 -14 -20 18 5
34 -4 39 -23 13 -12 -16 -13 -15 -8 9 3 18 -1 32 -15 46 -11 11 -23 18 -26 15
-3 -4 -6 0 -6 8 -1 24 -149 119 -186 119 -15 0 -15 -3 4 -23 39 -41 47 -154
12 -165 -12 -4 -13 -2 -2 9 18 19 16 53 -3 45 -10 -4 -15 1 -15 15 0 11 -4 17
-10 14 -5 -3 -10 3 -10 15 0 12 -4 18 -10 15 -5 -3 -10 -1 -10 5 0 13 -50 64
-93 95 l-27 20 42 3 c24 1 52 4 63 7 11 2 24 4 28 4 5 1 5 6 2 11 -3 6 -1 10
4 10 6 0 11 -5 11 -12 0 -9 3 -8 13 1 10 11 10 14 0 18 -7 3 -13 12 -12 21 0
10 2 13 5 7 2 -6 28 -8 59 -7z m947 -5 c-11 -10 -33 -27 -48 -38 -15 -11 -33
-26 -41 -33 -7 -8 -18 -12 -24 -10 -18 6 60 86 89 91 15 2 31 5 36 6 5 0 0 -7
-12 -16z m-1882 -3 c-20 -13 -33 -13 -25 0 3 6 14 10 23 10 15 0 15 -2 2 -10z
m498 -13 c13 -10 13 -75 0 -83 -4 -3 -8 0 -8 6 0 6 -5 8 -12 4 -7 -4 -8 -3 -4
5 11 17 -3 53 -17 45 -7 -4 -9 -3 -4 1 4 5 -1 17 -10 27 -17 19 -16 19 12 12
17 -4 36 -11 43 -17z m312 19 c0 -2 -7 -7 -16 -10 -8 -3 -12 -2 -9 4 6 10 25
14 25 6z m355 -6 c3 -6 -1 -7 -9 -4 -18 7 -21 14 -7 14 6 0 13 -4 16 -10z
m1105 0 c0 -5 -15 -17 -32 -26 l-33 -17 24 27 c25 27 41 33 41 16z m-2223 -6
c-3 -3 -12 -4 -19 -1 -8 3 -5 6 6 6 11 1 17 -2 13 -5z m1173 -9 c22 0 25 -4
23 -33 -2 -43 -5 -45 -37 -31 -21 10 -26 19 -26 48 0 20 4 31 8 26 4 -6 18
-11 32 -10z m-1062 -4 c8 -4 12 -18 10 -30 -3 -20 -4 -21 -25 -6 -13 9 -20 22
-17 30 7 17 13 18 32 6z m427 -1 c-4 -6 7 -10 25 -10 37 0 79 -38 81 -72 2
-46 -3 -83 -13 -93 -6 -7 -7 0 -2 19 5 21 4 27 -5 22 -7 -5 -11 1 -11 14 0 13
-4 19 -12 14 -7 -4 -8 -3 -4 5 9 13 -18 43 -29 33 -5 -4 -5 -2 -2 4 4 6 -5 21
-18 34 -21 20 -25 40 -9 40 3 0 2 -4 -1 -10z m1708 -30 c-10 -10 -65 -1 -58 9
2 4 18 6 35 3 17 -2 28 -8 23 -12z m-159 -14 c-4 -11 -45 -36 -60 -36 -3 0 3
11 13 24 10 13 21 22 26 19 4 -2 7 1 7 7 0 6 4 9 10 5 5 -3 7 -12 4 -19z
m-1979 -14 c17 -12 18 -14 2 -8 -10 3 -34 6 -53 6 -22 0 -34 5 -34 13 0 17 57
10 85 -11z m145 -35 c0 -13 6 -29 13 -36 10 -10 8 -11 -7 -5 -11 4 -17 3 -14
-2 4 -5 -18 -9 -48 -9 -34 0 -56 5 -59 13 -3 8 6 12 28 13 40 2 38 2 62 -6 19
-6 20 -6 1 9 -10 8 -23 17 -29 19 -19 6 4 27 29 27 18 0 24 -5 24 -23z m1860
-1 c-10 -9 -29 -12 -55 -8 -32 4 -36 6 -20 13 11 4 36 8 55 8 29 1 32 -1 20
-13z m-190 -17 c0 -9 -8 -19 -17 -22 -10 -2 -26 -8 -37 -12 -18 -8 -18 -7 -2
17 9 13 14 26 12 29 -2 2 7 4 20 4 16 0 24 -6 24 -16z m-1492 -50 c3 -12 2
-12 -6 0 -14 20 -25 -4 -12 -28 16 -31 12 -33 -30 -11 -38 19 -52 44 -30 52
25 8 74 0 78 -13z m1512 -16 c0 -11 -6 -14 -22 -9 -13 3 -39 6 -58 7 l-35 1
28 12 c35 16 87 9 87 -11z m-212 -3 c-3 -14 -80 -59 -103 -60 -5 0 5 14 23 31
18 17 30 33 28 37 -2 4 9 7 25 7 21 0 29 -4 27 -15z m-1503 -19 c3 -5 2 -12
-3 -15 -5 -3 -9 1 -9 9 0 17 3 19 12 6z m195 -39 c3 -2 -21 -1 -54 3 -33 4
-56 3 -53 -2 3 -5 -5 -9 -17 -9 -15 0 -23 6 -22 16 2 31 112 26 146 -8z m1657
32 c-3 -3 -12 -4 -19 -1 -8 3 -5 6 6 6 11 1 17 -2 13 -5z m-2677 -14 c0 -5 -2
-10 -4 -10 -3 0 -8 5 -11 10 -3 6 -1 10 4 10 6 0 11 -4 11 -10z m1181 -20 c12
0 19 -7 19 -19 0 -11 4 -22 9 -25 5 -3 11 -15 14 -25 5 -19 2 -19 -47 6 -63
31 -59 27 -51 53 4 14 12 19 22 16 8 -3 23 -6 34 -6z m43 -6 c3 -8 2 -12 -4
-9 -6 3 -10 10 -10 16 0 14 7 11 14 -7z m841 1 c6 0 16 4 23 8 14 9 17 -20 4
-40 -7 -11 -112 -53 -131 -53 -3 0 11 14 32 31 21 17 37 39 37 51 0 15 4 18
13 11 6 -5 17 -9 22 -8z m293 -2 c-10 -3 -18 -11 -18 -19 0 -17 -26 -19 -36
-3 -4 8 -27 10 -63 6 l-56 -5 42 16 c27 11 59 16 95 13 29 -3 45 -6 36 -8z
m842 8 c0 -5 -7 -11 -14 -14 -10 -4 -13 -1 -9 9 6 15 23 19 23 5z m-3150 -21
c0 -5 -4 -10 -10 -10 -5 0 -10 5 -10 10 0 6 5 10 10 10 6 0 10 -4 10 -10z
m3173 -7 c-7 -2 -19 -2 -25 0 -7 3 -2 5 12 5 14 0 19 -2 13 -5z m-3206 -9 c-3
-3 -12 -4 -19 -1 -8 3 -5 6 6 6 11 1 17 -2 13 -5z m1323 -4 c0 -5 -2 -10 -4
-10 -3 0 -8 5 -11 10 -3 6 -1 10 4 10 6 0 11 -4 11 -10z m40 -4 c0 -2 -7 -7
-16 -10 -8 -3 -12 -2 -9 4 6 10 25 14 25 6z m1730 -11 c-7 -8 -16 -15 -21 -15
-5 0 -6 7 -3 15 4 8 13 15 21 15 13 0 13 -3 3 -15z m-2991 -24 c-3 -6 -10 -7
-18 -2 -7 5 -10 14 -6 21 9 14 29 -2 24 -19z m751 9 c-6 -11 -12 -20 -14 -20
-2 0 -2 9 1 20 3 11 9 20 15 20 5 0 4 -9 -2 -20z m175 10 c3 -5 32 -10 63 -10
34 -1 70 -8 89 -18 l32 -17 -89 0 c-48 0 -86 3 -83 8 2 4 -1 7 -7 7 -6 0 -8 5
-5 10 3 6 -4 14 -17 19 -16 7 -18 10 -6 10 9 1 20 -3 23 -9z m295 -26 c0 -8
-4 -12 -10 -9 -5 3 -10 10 -10 16 0 5 5 9 10 9 6 0 10 -7 10 -16z m151 -1 c13
-16 12 -17 -3 -4 -10 7 -18 15 -18 17 0 8 8 3 21 -13z m379 13 c0 -2 -8 -10
-17 -17 -16 -13 -17 -12 -4 4 13 16 21 21 21 13z m263 -7 c17 7 28 7 32 0 4
-5 3 -9 -2 -8 -23 4 -43 -2 -40 -13 1 -7 -4 -12 -12 -13 -36 -1 -17 -25 34
-44 58 -22 100 -27 91 -12 -4 5 12 7 36 4 29 -4 39 -3 34 5 -5 8 -2 10 9 6 10
-4 -5 -18 -52 -47 -38 -22 -69 -44 -71 -49 -2 -4 -8 -8 -13 -8 -12 0 -59 -49
-59 -61 0 -5 -6 -6 -14 -3 -16 6 -31 -29 -21 -48 4 -7 -1 -4 -10 7 -14 17 -17
18 -25 5 -5 -8 -10 -23 -10 -32 0 -10 -4 -18 -9 -18 -31 0 56 143 108 177 l34
23 -28 0 c-27 0 -157 -57 -163 -72 -2 -5 -10 -8 -18 -8 -8 0 -14 -4 -14 -10 0
-5 -6 -10 -14 -10 -8 0 -18 -10 -21 -21 -5 -16 -9 -18 -15 -9 -6 9 -12 4 -24
-16 -8 -16 -15 -23 -16 -15 0 23 -30 -8 -31 -33 0 -20 -1 -20 -8 -2 -8 22 -14
16 -38 -34 -8 -18 -12 -20 -12 -8 -2 30 -30 8 -37 -28 -6 -34 -24 -48 -24 -18
0 14 -2 14 -16 3 -14 -12 -15 -8 -10 32 30 242 30 242 61 272 24 24 265 101
308 98 30 -1 37 1 31 11 -6 11 -5 11 8 0 11 -9 23 -10 41 -3z m1017 1 c0 -5
-4 -10 -9 -10 -6 0 -13 5 -16 10 -3 6 1 10 9 10 9 0 16 -4 16 -10z m-3233 -6
c-3 -3 -12 -4 -19 -1 -8 3 -5 6 6 6 11 1 17 -2 13 -5z m153 2 c0 -2 -7 -6 -15
-10 -8 -3 -15 -1 -15 4 0 6 7 10 15 10 8 0 15 -2 15 -4z m1368 -12 c11 3 24
-5 37 -22 19 -27 19 -27 0 -12 -11 8 -23 20 -27 25 -4 6 -8 -1 -8 -14 0 -13
12 -39 26 -58 l25 -33 -58 26 c-32 14 -64 28 -70 31 -7 3 -13 20 -13 38 0 33
0 33 35 24 20 -6 43 -8 53 -5z m377 -23 c-8 -16 -23 -31 -33 -33 -15 -4 -18
-1 -14 20 4 20 2 24 -12 19 -11 -4 -16 -1 -16 9 0 12 7 15 24 12 14 -3 30 -1
37 3 23 14 29 -1 14 -30z m1472 33 c-3 -3 -12 -4 -19 -1 -8 3 -5 6 6 6 11 1
17 -2 13 -5z m-1650 -18 c4 -4 -4 -6 -19 -4 -35 5 -46 15 -14 14 14 -1 29 -5
33 -10z m573 -2 c0 -8 -5 -12 -10 -9 -6 4 -8 11 -5 16 9 14 15 11 15 -7z m800
-9 c-16 -19 -30 -19 -30 -1 0 8 8 16 18 18 24 6 27 1 12 -17z m-2810 -16 c0
-16 -3 -18 -20 -9 -11 6 -17 17 -14 25 8 19 34 7 34 -16z m2410 3 c0 -4 -9
-14 -20 -22 -11 -8 -20 -21 -20 -29 0 -8 -3 -11 -7 -8 -3 4 -12 2 -20 -5 -7
-6 -16 -8 -19 -5 -10 9 25 65 43 70 30 8 43 7 43 -1z m-945 -12 c-3 -5 -12
-10 -18 -10 -7 0 -6 4 3 10 19 12 23 12 15 0z m-1525 -10 c-19 -13 -30 -13
-30 0 0 6 10 10 23 10 18 0 19 -2 7 -10z m2898 3 c-10 -2 -28 -2 -40 0 -13 2
-5 4 17 4 22 1 32 -1 23 -4z m-1687 -21 c-7 -2 -18 1 -23 6 -8 8 -4 9 13 5 13
-4 18 -8 10 -11z m1083 -7 c-16 -14 -32 -25 -36 -25 -5 0 -8 -7 -8 -16 0 -8
-4 -12 -10 -9 -5 3 -10 1 -10 -4 0 -6 -6 -11 -14 -11 -8 0 -18 -9 -21 -20 -4
-11 -10 -18 -15 -15 -11 7 -21 -22 -13 -42 5 -14 3 -15 -7 -6 -30 28 54 158
108 166 53 8 55 7 26 -18z m456 11 c0 -15 -16 -30 -42 -39 -16 -6 -16 -4 -5
16 20 36 47 49 47 23z m-2585 -31 c0 -19 -3 -21 -17 -14 -21 12 -31 26 -24 38
11 18 41 0 41 -24z m655 20 c0 -8 -4 -15 -10 -15 -5 0 -7 7 -4 15 4 8 8 15 10
15 2 0 4 -7 4 -15z m200 -1 c0 -2 -11 -4 -25 -4 -14 0 -25 4 -25 9 0 4 11 6
25 3 14 -2 25 -6 25 -8z m101 -6 c0 -10 2 -10 6 0 2 6 12 12 21 12 15 0 15 -2
2 -11 -11 -7 1 -9 43 -5 54 5 66 2 200 -56 78 -34 145 -64 149 -67 4 -4 3 -51
-3 -106 -13 -137 -19 -166 -29 -160 -5 3 -11 1 -15 -5 -11 -18 -23 -11 -18 10
3 11 2 27 -1 36 -6 15 -8 15 -27 -2 -18 -16 -19 -16 -13 -1 3 9 3 24 0 33 -5
13 -9 14 -21 4 -13 -11 -15 -8 -15 15 0 20 -4 26 -15 21 -10 -4 -15 1 -15 14
0 22 -16 27 -23 8 -3 -7 -6 -3 -6 8 -1 19 -17 34 -36 33 -3 0 -12 6 -20 13
-29 26 -41 34 -75 50 -71 32 -121 32 -69 0 25 -16 60 -92 61 -132 1 -17 6 -30
11 -30 6 0 0 -9 -13 -20 -28 -24 -36 -20 -20 9 14 28 5 44 -19 32 -15 -9 -17
-6 -13 20 4 29 -11 41 -21 17 -3 -7 -6 0 -6 16 -1 24 -3 27 -16 16 -13 -11
-15 -8 -15 14 0 16 -4 25 -10 21 -5 -3 -10 0 -10 7 0 15 -62 62 -124 95 l-41
21 28 7 c15 4 31 5 34 1 4 -3 -5 -6 -18 -6 -18 -1 -21 -3 -9 -9 8 -5 37 -5 65
0 28 6 58 10 68 10 10 0 21 7 24 15 4 11 8 12 13 4 5 -8 11 -6 20 5 8 9 9 15
2 15 -6 0 -16 9 -22 20 -7 14 -7 20 0 20 5 0 10 -6 11 -12z m349 -22 c0 -18
-1 -18 -12 -4 -7 9 -20 18 -28 21 -8 3 -3 5 13 4 20 -1 27 -7 27 -21z m-828 4
c24 -7 39 -18 44 -33 12 -36 6 -90 -12 -106 -15 -15 -15 -14 -5 6 15 29 14 36
-3 30 -10 -4 -12 0 -8 15 3 14 1 19 -6 14 -7 -4 -12 -1 -12 8 0 8 -6 21 -12
28 -47 50 -46 54 14 38z m298 0 c0 -5 -2 -10 -4 -10 -3 0 -8 5 -11 10 -3 6 -1
10 4 10 6 0 11 -4 11 -10z m584 -5 c11 -1 27 -3 34 -4 8 0 11 -9 9 -18 -3 -10
-8 -30 -11 -45 l-6 -28 -35 17 c-32 15 -35 21 -33 54 1 21 6 35 11 32 5 -3 19
-7 31 -8z m-1384 -15 c11 -7 2 -10 -32 -10 -27 0 -48 5 -48 10 0 13 60 13 80
0z m2237 -22 c-3 -7 -5 -2 -5 12 0 14 2 19 5 13 2 -7 2 -19 0 -25z m233 13
c-1 -20 -75 -69 -88 -57 -3 3 -1 6 5 6 5 0 15 11 21 25 6 14 19 25 27 25 9 0
13 4 10 10 -3 6 1 7 9 4 9 -3 16 -9 16 -13z m176 12 c-3 -4 -26 -7 -51 -8 -24
0 -39 3 -32 7 15 10 93 11 83 1z m-2016 -14 c0 -8 17 -10 53 -6 28 3 43 2 33
-2 -19 -7 -19 -8 2 -13 34 -9 62 -66 62 -124 0 -37 -4 -54 -15 -58 -13 -4 -14
-2 -5 14 14 25 4 45 -15 30 -9 -8 -11 -5 -7 15 3 20 1 24 -12 19 -12 -5 -15
-2 -10 10 4 11 -12 33 -52 71 -33 30 -53 55 -46 55 6 0 12 -5 12 -11z m-493
-7 c6 -4 15 -20 19 -36 l7 -29 -32 19 c-30 18 -38 33 -24 47 8 9 15 9 30 -1z
m1183 -12 c8 -5 11 -10 5 -10 -5 0 -17 5 -25 10 -8 5 -10 10 -5 10 6 0 17 -5
25 -10z m1185 -40 c-14 -16 -30 -20 -74 -19 -56 1 -56 1 -26 15 17 7 44 11 62
9 17 -3 34 -1 38 5 3 5 9 10 12 10 3 0 -2 -9 -12 -20z m-2362 -17 c15 -7 5 -9
-40 -7 -40 2 -59 7 -61 17 -2 11 6 13 40 7 24 -3 51 -11 61 -17z m2133 4 c12
4 12 0 5 -20 -5 -14 -7 -28 -3 -32 3 -3 -1 -3 -10 0 -9 4 -30 -1 -47 -9 -43
-23 -46 -20 -16 16 21 24 23 33 13 40 -9 6 -5 7 11 3 18 -6 22 -4 16 6 -6 11
-5 11 5 2 7 -6 19 -9 26 -6z m-1966 -37 c0 -9 7 -25 15 -36 8 -12 12 -24 8
-27 -3 -4 -33 -4 -66 0 -41 4 -58 3 -54 -4 5 -7 0 -9 -11 -6 -27 7 -23 33 5
33 17 0 22 4 17 13 -5 8 -2 8 9 -2 9 -7 17 -11 17 -7 0 3 16 -1 37 -9 52 -22
54 -10 2 14 -33 16 -44 27 -44 44 0 21 2 22 33 12 18 -5 32 -17 32 -25z m28 5
c-3 -3 -9 2 -12 12 -6 14 -5 15 5 6 7 -7 10 -15 7 -18z m1959 -43 c29 -9 17
-27 -22 -36 -23 -5 -27 -4 -15 4 11 9 0 10 -45 7 l-60 -5 40 18 c42 20 66 22
102 12z m-1867 -13 c0 -6 7 -9 15 -6 8 4 17 2 21 -4 4 -6 11 -6 19 1 11 9 16
6 21 -17 4 -15 13 -40 21 -56 l14 -27 -56 27 c-43 21 -55 32 -55 50 0 13 -4
23 -10 23 -5 0 -10 5 -10 10 0 6 5 10 10 10 6 0 10 -5 10 -11z m1615 1 c16 13
26 0 19 -26 -5 -17 -31 -32 -134 -72 -8 -3 5 11 28 32 23 21 42 45 42 54 0 12
-4 12 -22 -4 l-23 -19 19 22 c15 18 22 20 38 12 14 -7 23 -7 33 1z m1107 -22
c-7 -7 -12 -8 -12 -2 0 14 12 26 19 19 2 -3 -1 -11 -7 -17z m-2618 -4 c5 -14
4 -15 -9 -4 -17 14 -19 20 -6 20 5 0 12 -7 15 -16z m-507 0 c-3 -3 -12 -4 -19
-1 -8 3 -5 6 6 6 11 1 17 -2 13 -5z m643 2 c0 -3 -4 -8 -10 -11 -5 -3 -10 -1
-10 4 0 6 5 11 10 11 6 0 10 -2 10 -4z m2527 -12 c-3 -3 -12 -4 -19 -1 -8 3
-5 6 6 6 11 1 17 -2 13 -5z m-120 -41 c-15 -16 -17 -16 -17 -1 0 9 6 18 13 21
20 7 22 -2 4 -20z m-2730 1 c-3 -3 -12 -4 -19 -1 -8 3 -5 6 6 6 11 1 17 -2 13
-5z m131 -19 c29 -14 56 -25 61 -25 6 0 12 -4 16 -9 3 -5 -11 -5 -32 1 -21 6
-67 8 -103 4 -61 -5 -66 -4 -67 14 -2 17 5 20 45 20 34 0 43 3 32 10 -27 17
-5 11 48 -15z m-297 2 c-7 -7 -14 -8 -21 -1 -6 6 -2 10 12 11 16 2 18 -1 9
-10z m89 3 c0 -5 -5 -10 -11 -10 -5 0 -7 5 -4 10 3 6 8 10 11 10 2 0 4 -4 4
-10z m1827 -4 c1 -1 -4 -9 -11 -18 -7 -10 -28 -20 -47 -23 -26 -4 -29 -3 -14
4 15 7 4 10 -45 13 l-65 3 45 16 c29 11 61 15 90 12 25 -3 46 -6 47 -7z m93
-2 c0 -8 -5 -12 -10 -9 -6 4 -8 11 -5 16 9 14 15 11 15 -7z m-1866 -2 c3 -5
-1 -9 -9 -9 -8 0 -12 4 -9 9 3 4 7 8 9 8 2 0 6 -4 9 -8z m326 -2 c0 -5 -5 -10
-11 -10 -5 0 -7 5 -4 10 3 6 8 10 11 10 2 0 4 -4 4 -10z m927 4 c-3 -3 -12 -4
-19 -1 -8 3 -5 6 6 6 11 1 17 -2 13 -5z m227 -27 c1 -14 0 -24 -3 -22 -2 3 -9
1 -15 -4 -7 -6 -46 -23 -89 -40 l-77 -29 50 45 c27 25 50 52 50 60 0 14 -4 13
-22 -3 -23 -19 -23 -19 -6 1 14 16 28 20 64 19 43 -2 47 -4 48 -27z m1319 26
c-7 -2 -21 -2 -30 0 -10 3 -4 5 12 5 17 0 24 -2 18 -5z m-2502 -20 c13 -16 12
-17 -3 -4 -10 7 -18 15 -18 17 0 8 8 3 21 -13z m70 3 c14 8 49 -6 49 -20 0 -7
13 -31 29 -54 l30 -40 -67 30 c-85 38 -88 41 -72 75 7 16 15 23 17 15 3 -6 9
-10 14 -6z m89 -18 l23 -33 -26 24 c-15 14 -27 28 -27 33 0 14 5 9 30 -24z
m2220 8 c0 -13 -29 -31 -37 -22 -4 4 25 36 33 36 2 0 4 -6 4 -14z m-2793 -12
c-3 -3 -12 -4 -19 -1 -8 3 -5 6 6 6 11 1 17 -2 13 -5z m703 -26 c0 -6 -6 -5
-15 2 -8 7 -15 14 -15 16 0 2 7 1 15 -2 8 -4 15 -11 15 -16z m620 12 c0 -5 -2
-10 -4 -10 -3 0 -8 5 -11 10 -3 6 -1 10 4 10 6 0 11 -4 11 -10z m739 -6 c13
-11 -8 -10 -34 2 l-30 13 30 -6 c17 -3 32 -7 34 -9z m-709 -17 c0 -14 -39 -41
-47 -33 -3 3 2 8 11 12 9 3 13 11 9 17 -4 6 -1 7 7 2 10 -6 12 -4 7 9 -4 10
-3 15 3 11 6 -3 10 -12 10 -18z m1480 13 c0 -5 -17 -10 -37 -9 -34 1 -35 2
-13 9 36 11 50 11 50 0z m-2420 -4 c0 -3 -4 -8 -10 -11 -5 -3 -10 -1 -10 4 0
6 5 11 10 11 6 0 10 -2 10 -4z m340 -7 c0 -5 -4 -8 -9 -5 -5 4 -11 0 -14 -6
-2 -7 -8 -9 -13 -5 -5 4 -2 12 6 17 20 13 30 12 30 -1z m460 -29 c7 11 10 11
10 2 0 -12 38 -11 60 3 17 11 -19 -69 -37 -82 -20 -16 -37 -17 -28 -3 3 6 3
19 0 31 -5 16 -10 18 -21 8 -12 -10 -14 -4 -13 32 0 39 1 41 10 19 8 -20 12
-22 19 -10z m380 15 c7 -9 21 -13 31 -10 11 3 28 8 39 11 11 3 20 1 20 -5 0
-6 -3 -10 -7 -10 -5 1 -19 1 -33 0 -20 -1 -22 -3 -10 -11 12 -8 11 -10 -7 -10
-31 0 -30 -33 1 -48 17 -8 27 -7 36 1 8 8 11 8 7 1 -8 -14 35 -34 75 -34 31 0
31 1 12 16 -19 15 -19 16 1 9 11 -4 40 -9 65 -12 34 -3 41 -2 30 6 -12 9 -11
11 8 11 31 0 27 -15 -8 -30 -16 -7 -30 -15 -30 -19 0 -4 -16 -15 -35 -25 -19
-11 -35 -25 -35 -33 0 -8 -5 -11 -10 -8 -6 3 -14 -4 -19 -17 -6 -13 -10 -17
-10 -10 -1 22 -21 2 -21 -21 0 -17 -2 -19 -10 -7 -11 18 -22 8 -24 -23 -1 -20
-4 -23 -14 -14 -16 12 -32 -6 -32 -37 0 -15 -3 -16 -15 -6 -12 10 -15 7 -21
-14 -3 -14 -4 -33 0 -41 3 -8 1 -15 -5 -15 -15 0 -28 43 -17 58 6 6 7 12 2 12
-5 0 -4 4 1 8 6 4 21 28 34 55 13 26 41 63 63 82 33 31 35 35 16 35 -26 0
-158 -60 -158 -71 0 -5 -7 -9 -15 -9 -8 0 -15 -4 -15 -10 0 -5 -7 -10 -15 -10
-8 0 -15 -4 -15 -9 0 -5 -9 -11 -20 -14 -13 -3 -20 -14 -20 -29 0 -17 -3 -19
-9 -9 -11 18 -31 5 -31 -20 0 -21 -20 -27 -20 -6 -1 20 -30 -25 -30 -47 0 -15
-3 -17 -12 -8 -16 16 -38 -3 -38 -34 0 -13 -4 -24 -10 -24 -5 0 -10 8 -10 17
0 16 -1 16 -16 1 -9 -9 -16 -32 -16 -52 0 -39 -16 -49 -25 -16 -6 23 -19 26
-27 8 -5 -13 -1 315 5 340 4 22 36 38 184 91 95 35 155 51 188 51 30 0 46 4
42 10 -4 6 -11 8 -16 5 -5 -4 -9 -1 -9 4 0 16 16 13 30 -4z m1083 -22 c-6 -2
-19 -10 -29 -17 -16 -12 -13 -13 29 -9 33 4 47 2 47 -7 0 -7 -6 -10 -14 -7 -7
3 -29 2 -49 -2 -29 -7 -34 -6 -32 8 2 9 4 19 4 24 1 4 11 17 23 29 22 22 23
22 27 3 2 -10 -1 -21 -6 -22z m-2413 11 c0 -2 -7 -4 -15 -4 -8 0 -15 4 -15 10
0 5 7 7 15 4 8 -4 15 -8 15 -10z m87 10 c-3 -3 -12 -4 -19 -1 -8 3 -5 6 6 6
11 1 17 -2 13 -5z m529 -21 c-7 -7 -26 7 -26 19 0 6 6 6 15 -2 9 -7 13 -15 11
-17z m-696 -4 c0 -5 -4 -9 -8 -9 -5 0 -9 7 -9 15 0 8 4 12 9 9 4 -3 8 -9 8
-15z m380 -16 l45 -20 -95 3 c-63 2 -87 1 -70 -5 30 -11 6 -14 -39 -5 -17 4
-28 10 -25 15 7 13 -10 11 -23 -2 -8 -8 -13 -8 -18 0 -3 7 -1 10 7 9 7 -2 14
6 16 17 3 19 8 20 80 14 45 -3 96 -14 122 -26z m220 7 c0 -15 38 -12 43 3 5
15 32 -5 49 -37 11 -20 10 -20 -8 -6 -10 8 -22 19 -25 24 -4 4 -9 3 -13 -3 -8
-12 39 -90 59 -98 8 -3 15 -9 15 -14 0 -8 -75 19 -140 50 -29 14 -36 23 -38
53 -3 34 -2 35 25 32 15 -2 20 -1 11 2 -10 3 -18 10 -18 15 0 6 8 5 20 -1 11
-6 20 -15 20 -20z m-630 5 c0 -8 -4 -15 -10 -15 -5 0 -7 7 -4 15 4 8 8 15 10
15 2 0 4 -7 4 -15z m556 -13 c1 -12 -3 -22 -8 -22 -6 0 -8 6 -5 14 3 7 0 19
-6 26 -9 10 -9 11 3 8 8 -3 16 -14 16 -26z m344 -2 c0 -6 -8 -10 -17 -9 -12 0
-13 2 -5 6 10 4 9 9 -5 20 -17 13 -16 13 5 3 12 -6 22 -15 22 -20z m680 7 c0
-11 -1 -18 -3 -16 -1 2 -8 11 -15 20 -9 13 -9 16 3 16 8 0 15 -9 15 -20z
m-1460 3 c0 -4 -7 -7 -15 -6 -23 3 -26 12 -5 13 11 1 20 -2 20 -7z m735 -1
c11 -16 1 -19 -13 -3 -7 8 -8 14 -3 14 5 0 13 -5 16 -11z m1186 -27 c-17 -16
-31 -35 -31 -41 0 -7 -4 -9 -10 -6 -10 6 -13 -5 -11 -35 0 -10 -1 -11 -5 -2
-10 21 -22 13 -27 -15 l-4 -28 -1 30 c-2 49 32 113 65 121 15 3 33 7 38 9 20
5 16 -4 -14 -33z m-366 18 c3 -6 -1 -7 -9 -4 -18 7 -21 14 -7 14 6 0 13 -4 16
-10z m-658 -22 c-3 -8 -6 -5 -6 6 -1 11 2 17 5 13 3 -3 4 -12 1 -19z m-967 -7
c0 -5 -9 -11 -20 -14 -11 -3 -20 -1 -20 3 0 5 8 11 18 13 9 3 18 5 20 6 1 0 2
-3 2 -8z m818 -14 c10 -8 9 -12 -4 -22 -17 -12 -11 -40 7 -30 5 4 9 1 9 -5 0
-7 7 -10 15 -6 8 3 15 0 15 -7 0 -8 3 -8 9 2 6 9 10 10 16 2 4 -7 16 -9 27 -5
15 4 18 3 13 -6 -5 -8 -2 -10 11 -6 17 5 19 1 16 -49 -2 -30 -7 -53 -10 -51
-8 5 -85 39 -92 41 -33 9 -49 19 -55 32 -5 15 -4 15 12 1 36 -31 43 -31 43 2
0 17 -4 29 -9 26 -5 -3 -14 1 -21 9 -7 8 -19 15 -27 15 -13 0 -13 3 0 24 15
23 15 25 -6 40 -20 14 -20 15 -2 9 11 -3 26 -10 33 -16z m1012 6 c3 -2 -3 -9
-13 -14 -9 -6 -15 -15 -11 -20 3 -5 2 -9 -3 -8 -19 5 -43 -15 -44 -35 0 -11
-3 -15 -6 -8 -7 18 -23 4 -24 -21 0 -12 -3 -16 -6 -9 -8 19 -23 3 -23 -25 0
-21 -3 -23 -14 -14 -17 14 -27 -6 -20 -41 5 -22 5 -22 -10 -4 -13 16 -13 23 5
67 10 28 19 52 19 54 0 3 15 20 34 40 23 24 44 35 63 35 22 0 25 2 13 11 -11
8 -9 9 10 3 14 -3 27 -9 30 -11z m510 -1 c0 -10 -13 -25 -29 -35 -38 -22 -44
-21 -31 4 7 11 10 26 7 32 -3 7 7 13 24 14 22 2 29 -2 29 -15z m-2190 4 c0 -2
-7 -6 -15 -10 -8 -3 -15 -1 -15 4 0 6 7 10 15 10 8 0 15 -2 15 -4z m756 -8 c4
-7 4 -10 -1 -6 -4 4 -17 1 -29 -7 -24 -17 -36 -19 -36 -6 0 5 12 14 28 19 15
6 28 11 29 11 1 1 5 -5 9 -11z m-719 -20 c-3 -8 -6 -5 -6 6 -1 11 2 17 5 13 3
-3 4 -12 1 -19z m363 -18 c8 -5 11 -10 5 -10 -5 0 -17 5 -25 10 -8 5 -10 10
-5 10 6 0 17 -5 25 -10z m-231 -16 c2 -2 -12 -4 -32 -4 -20 0 -37 4 -37 10 0
8 58 3 69 -6z m2061 1 c3 -6 -17 -11 -49 -12 -47 -3 -52 -1 -37 10 20 15 79
16 86 2z m-1626 -24 c-10 -10 -23 -16 -28 -13 -5 3 2 11 15 18 33 18 36 17 13
-5z m1424 -10 c-2 -9 -28 -29 -58 -45 -53 -28 -54 -28 -34 -5 12 13 24 32 27
42 4 9 13 17 22 17 8 0 15 4 15 10 0 5 7 7 15 3 9 -3 15 -13 13 -22z m-1860
12 c-10 -2 -18 -9 -18 -15 0 -6 -3 -9 -6 -5 -10 10 6 27 24 26 15 -1 15 -2 0
-6z m-265 -40 c-7 -2 -19 -2 -25 0 -7 3 -2 5 12 5 14 0 19 -2 13 -5z m2173
-35 c-9 -5 -14 -13 -12 -17 3 -4 -29 -7 -69 -6 -71 0 -73 1 -47 15 28 14 120
29 136 22 5 -3 1 -9 -8 -14z m-258 -36 c3 -17 -9 -27 -57 -52 -65 -32 -77 -29
-36 10 14 13 25 33 25 44 0 17 -2 18 -10 6 -5 -8 -10 -10 -10 -4 0 17 6 19 47
18 31 -1 39 -5 41 -22z m-188 -55 c0 -2 -9 -12 -19 -21 -15 -14 -21 -15 -27
-4 -4 7 -4 10 1 6 4 -4 14 -1 22 7 14 14 23 19 23 12z m247 -18 c-9 -6 -17
-17 -17 -24 0 -17 -35 -20 -45 -5 -3 5 -31 7 -63 4 l-57 -5 30 18 c26 15 151
34 165 25 3 -2 -3 -8 -13 -13z m83 1 c0 -5 -2 -10 -4 -10 -3 0 -8 5 -11 10 -3
6 -1 10 4 10 6 0 11 -4 11 -10z m-388 -54 c-10 -22 -152 -93 -152 -76 0 5 7
13 15 17 22 13 65 75 59 85 -3 5 -12 1 -20 -9 -7 -10 -14 -13 -14 -7 0 20 23
32 55 27 20 -3 35 -1 40 7 13 22 29 -18 17 -44z m-235 28 c-3 -3 -12 -4 -19
-1 -8 3 -5 6 6 6 11 1 17 -2 13 -5z m693 -24 c0 -5 -7 -7 -15 -4 -8 4 -15 8
-15 10 0 2 7 4 15 4 8 0 15 -4 15 -10z m-723 -30 c2 -17 -1 -18 -18 -7 -18 11
-18 12 -1 19 9 3 17 7 17 7 1 1 1 -8 2 -19z m-227 6 c0 -2 -7 -7 -16 -10 -8
-3 -12 -2 -9 4 6 10 25 14 25 6z m-50 -21 c0 -8 -2 -15 -4 -15 -2 0 -6 7 -10
15 -3 8 -1 15 4 15 6 0 10 -7 10 -15z m500 -15 c-11 -7 2 -10 45 -11 33 -1 64
0 70 1 5 1 -3 -10 -18 -24 -18 -16 -44 -28 -70 -31 -32 -4 -36 -3 -17 4 19 7
10 9 -42 10 -37 1 -69 -3 -73 -9 -3 -5 -13 -6 -21 -3 -11 4 6 16 52 39 67 31
105 44 74 24z m-195 -12 c-11 -6 -23 -16 -27 -22 -5 -7 -8 -5 -8 6 0 9 8 19
18 21 31 8 37 7 17 -5z m400 -16 c-8 -8 -25 10 -19 20 4 6 9 5 15 -3 4 -7 6
-15 4 -17z m90 8 c3 -6 -1 -7 -9 -4 -18 7 -21 14 -7 14 6 0 13 -4 16 -10z
m-821 -15 c-4 -8 -10 -12 -15 -9 -14 8 -10 24 6 24 9 0 12 -6 9 -15z m314 -29
c-2 -1 -12 -8 -23 -16 -18 -14 -19 -13 -8 1 7 9 10 19 6 23 -4 4 1 4 10 0 10
-3 17 -7 15 -8z m-318 -21 c-9 -11 -9 -19 -2 -28 8 -10 3 -20 -23 -40 -21 -17
-32 -21 -29 -12 4 9 15 20 25 25 11 6 16 17 13 25 -6 14 11 45 23 45 3 0 0 -7
-7 -15z m-41 -4 c9 -6 10 -11 2 -15 -13 -8 -31 1 -31 15 0 11 11 11 29 0z
m401 5 c0 -2 -7 -7 -16 -10 -8 -3 -12 -2 -9 4 6 10 25 14 25 6z m-39 -43 c13
-16 12 -17 -3 -4 -10 7 -18 15 -18 17 0 8 8 3 21 -13z m-391 -35 c-13 -56 -32
-87 -59 -96 -14 -6 -34 -13 -43 -17 -16 -6 -18 0 -18 66 0 51 3 69 10 59 10
-16 80 -23 80 -8 0 5 5 6 12 2 7 -5 9 -2 5 8 -6 17 1 30 13 23 5 -3 4 -20 0
-37z m330 38 c0 -2 -9 -6 -20 -9 -11 -3 -18 -1 -14 4 5 9 34 13 34 5z m110 -6
c0 -5 -8 -10 -17 -10 -15 0 -16 2 -3 10 19 12 20 12 20 0z m115 -10 c-3 -5
-13 -10 -22 -10 -9 0 -13 -6 -10 -15 9 -23 -6 -24 -28 -3 -17 16 -17 18 -2 13
9 -4 17 -3 17 3 0 6 10 13 23 15 12 2 23 5 25 6 2 0 0 -3 -3 -9z m95 0 c0 -5
-5 -10 -11 -10 -5 0 -7 5 -4 10 3 6 8 10 11 10 2 0 4 -4 4 -10z m-62 -25 c-3
-3 -9 2 -12 12 -6 14 -5 15 5 6 7 -7 10 -15 7 -18z m43 -12 c13 -15 12 -15 -8
-4 -24 12 -29 21 -14 21 5 0 15 -7 22 -17z m-592 -37 c-15 -13 -49 -25 -49
-17 0 5 8 12 18 14 24 6 36 8 31 3z"/>
</g>
</svg>
